<mxfile host="app.diagrams.net" modified="2023-07-15T20:53:05.904Z" agent="Mozilla/5.0 (Windows NT 10.0; Win64; x64) AppleWebKit/537.36 (KHTML, like Gecko) Chrome/114.0.0.0 Safari/537.36 Edg/114.0.1823.82" etag="WUZk3tghfVVQHuwdCv3f" version="21.6.2" type="github">
  <diagram name="Página-1" id="v7wV8ZnBL8g8qVp7nPG3">
    <mxGraphModel dx="905" dy="521" grid="0" gridSize="10" guides="1" tooltips="1" connect="1" arrows="1" fold="1" page="1" pageScale="1" pageWidth="827" pageHeight="1169" math="0" shadow="0">
      <root>
        <mxCell id="0" />
        <mxCell id="1" parent="0" />
        <mxCell id="CSpq6tTDl8FNC48XlwBT-117" value="" style="rounded=1;whiteSpace=wrap;html=1;" vertex="1" parent="1">
          <mxGeometry x="318" y="818" width="276" height="106" as="geometry" />
        </mxCell>
        <mxCell id="CSpq6tTDl8FNC48XlwBT-114" value="" style="rounded=1;whiteSpace=wrap;html=1;fillColor=#f5f5f5;fontColor=#333333;strokeColor=#666666;" vertex="1" parent="1">
          <mxGeometry x="342" y="772" width="223" height="83" as="geometry" />
        </mxCell>
        <mxCell id="CSpq6tTDl8FNC48XlwBT-10" value="" style="rounded=1;whiteSpace=wrap;html=1;fontStyle=0" vertex="1" parent="1">
          <mxGeometry x="431" y="150" width="239" height="80" as="geometry" />
        </mxCell>
        <mxCell id="CSpq6tTDl8FNC48XlwBT-9" value="" style="rounded=1;whiteSpace=wrap;html=1;fontStyle=0" vertex="1" parent="1">
          <mxGeometry x="240" y="150" width="90" height="80" as="geometry" />
        </mxCell>
        <mxCell id="CSpq6tTDl8FNC48XlwBT-12" style="edgeStyle=orthogonalEdgeStyle;rounded=0;orthogonalLoop=1;jettySize=auto;html=1;entryX=0.983;entryY=0.648;entryDx=0;entryDy=0;entryPerimeter=0;exitX=0.026;exitY=0.597;exitDx=0;exitDy=0;exitPerimeter=0;dashed=1;" edge="1" parent="1" source="CSpq6tTDl8FNC48XlwBT-1" target="CSpq6tTDl8FNC48XlwBT-7">
          <mxGeometry relative="1" as="geometry" />
        </mxCell>
        <mxCell id="CSpq6tTDl8FNC48XlwBT-1" value="" style="image;aspect=fixed;perimeter=ellipsePerimeter;html=1;align=center;shadow=0;dashed=0;spacingTop=3;image=img/lib/active_directory/web_server.svg;" vertex="1" parent="1">
          <mxGeometry x="442" y="165" width="40" height="50" as="geometry" />
        </mxCell>
        <mxCell id="CSpq6tTDl8FNC48XlwBT-3" style="edgeStyle=orthogonalEdgeStyle;rounded=0;orthogonalLoop=1;jettySize=auto;html=1;startArrow=classic;startFill=1;" edge="1" parent="1" source="CSpq6tTDl8FNC48XlwBT-2" target="CSpq6tTDl8FNC48XlwBT-1">
          <mxGeometry relative="1" as="geometry" />
        </mxCell>
        <mxCell id="CSpq6tTDl8FNC48XlwBT-2" value="" style="image;aspect=fixed;html=1;points=[];align=center;fontSize=12;image=img/lib/azure2/general/Folder_Website.svg;" vertex="1" parent="1">
          <mxGeometry x="517" y="162" width="68" height="56.00000000000001" as="geometry" />
        </mxCell>
        <mxCell id="CSpq6tTDl8FNC48XlwBT-4" value="HTML&lt;br&gt;CSS&lt;br&gt;JavaScript&lt;br&gt;Multimídia" style="text;html=1;align=center;verticalAlign=middle;resizable=0;points=[];autosize=1;strokeColor=none;fillColor=none;fontStyle=1" vertex="1" parent="1">
          <mxGeometry x="585" y="155" width="80" height="70" as="geometry" />
        </mxCell>
        <mxCell id="CSpq6tTDl8FNC48XlwBT-6" value="" style="image;aspect=fixed;perimeter=ellipsePerimeter;html=1;align=center;shadow=0;dashed=0;spacingTop=3;image=img/lib/active_directory/laptop_client.svg;" vertex="1" parent="1">
          <mxGeometry x="246" y="185" width="36" height="40" as="geometry" />
        </mxCell>
        <mxCell id="CSpq6tTDl8FNC48XlwBT-11" style="edgeStyle=orthogonalEdgeStyle;rounded=0;orthogonalLoop=1;jettySize=auto;html=1;exitX=0.99;exitY=0.171;exitDx=0;exitDy=0;exitPerimeter=0;entryX=0.026;entryY=0.308;entryDx=0;entryDy=0;entryPerimeter=0;dashed=1;" edge="1" parent="1" source="CSpq6tTDl8FNC48XlwBT-7" target="CSpq6tTDl8FNC48XlwBT-1">
          <mxGeometry relative="1" as="geometry">
            <Array as="points" />
          </mxGeometry>
        </mxCell>
        <mxCell id="CSpq6tTDl8FNC48XlwBT-7" value="" style="points=[[0.03,0.03,0],[0.5,0,0],[0.97,0.03,0],[1,0.4,0],[0.97,0.745,0],[0.5,1,0],[0.03,0.745,0],[0,0.4,0]];verticalLabelPosition=bottom;sketch=0;html=1;verticalAlign=top;aspect=fixed;align=center;pointerEvents=1;shape=mxgraph.cisco19.workstation;fillColor=#0073fc;strokeColor=none;" vertex="1" parent="1">
          <mxGeometry x="281" y="175" width="37.5" height="30" as="geometry" />
        </mxCell>
        <mxCell id="CSpq6tTDl8FNC48XlwBT-8" value="" style="html=1;verticalLabelPosition=bottom;align=center;labelBackgroundColor=#ffffff;verticalAlign=top;strokeWidth=2;strokeColor=#0080F0;shadow=0;dashed=0;shape=mxgraph.ios7.icons.smartphone;" vertex="1" parent="1">
          <mxGeometry x="258" y="160" width="12" height="20" as="geometry" />
        </mxCell>
        <mxCell id="CSpq6tTDl8FNC48XlwBT-13" value="Requisição HTTP" style="text;html=1;align=center;verticalAlign=middle;resizable=0;points=[];autosize=1;strokeColor=none;fillColor=none;" vertex="1" parent="1">
          <mxGeometry x="319.5" y="156" width="120" height="30" as="geometry" />
        </mxCell>
        <mxCell id="CSpq6tTDl8FNC48XlwBT-14" value="Resposta HTTP" style="text;html=1;align=center;verticalAlign=middle;resizable=0;points=[];autosize=1;strokeColor=none;fillColor=none;" vertex="1" parent="1">
          <mxGeometry x="324.5" y="189" width="110" height="30" as="geometry" />
        </mxCell>
        <mxCell id="CSpq6tTDl8FNC48XlwBT-15" value="Cliente" style="text;html=1;align=center;verticalAlign=middle;resizable=0;points=[];autosize=1;strokeColor=none;fillColor=none;fontStyle=1" vertex="1" parent="1">
          <mxGeometry x="255" y="120" width="60" height="30" as="geometry" />
        </mxCell>
        <mxCell id="CSpq6tTDl8FNC48XlwBT-16" value="Servidor" style="text;html=1;align=center;verticalAlign=middle;resizable=0;points=[];autosize=1;strokeColor=none;fillColor=none;fontStyle=1" vertex="1" parent="1">
          <mxGeometry x="516" y="120" width="70" height="30" as="geometry" />
        </mxCell>
        <mxCell id="CSpq6tTDl8FNC48XlwBT-17" value="" style="rounded=1;whiteSpace=wrap;html=1;fontStyle=0" vertex="1" parent="1">
          <mxGeometry x="431" y="340" width="239" height="80" as="geometry" />
        </mxCell>
        <mxCell id="CSpq6tTDl8FNC48XlwBT-18" value="" style="rounded=1;whiteSpace=wrap;html=1;fontStyle=0" vertex="1" parent="1">
          <mxGeometry x="240" y="340" width="90" height="80" as="geometry" />
        </mxCell>
        <mxCell id="CSpq6tTDl8FNC48XlwBT-19" style="edgeStyle=orthogonalEdgeStyle;rounded=0;orthogonalLoop=1;jettySize=auto;html=1;entryX=0.983;entryY=0.648;entryDx=0;entryDy=0;entryPerimeter=0;exitX=0.026;exitY=0.597;exitDx=0;exitDy=0;exitPerimeter=0;dashed=1;" edge="1" parent="1" source="CSpq6tTDl8FNC48XlwBT-20" target="CSpq6tTDl8FNC48XlwBT-26">
          <mxGeometry relative="1" as="geometry" />
        </mxCell>
        <mxCell id="CSpq6tTDl8FNC48XlwBT-20" value="" style="image;aspect=fixed;perimeter=ellipsePerimeter;html=1;align=center;shadow=0;dashed=0;spacingTop=3;image=img/lib/active_directory/web_server.svg;" vertex="1" parent="1">
          <mxGeometry x="442" y="355" width="40" height="50" as="geometry" />
        </mxCell>
        <mxCell id="CSpq6tTDl8FNC48XlwBT-21" style="edgeStyle=orthogonalEdgeStyle;rounded=0;orthogonalLoop=1;jettySize=auto;html=1;startArrow=classic;startFill=1;" edge="1" parent="1" source="CSpq6tTDl8FNC48XlwBT-22" target="CSpq6tTDl8FNC48XlwBT-20">
          <mxGeometry relative="1" as="geometry" />
        </mxCell>
        <mxCell id="CSpq6tTDl8FNC48XlwBT-22" value="" style="image;aspect=fixed;html=1;points=[];align=center;fontSize=12;image=img/lib/azure2/general/Folder_Website.svg;" vertex="1" parent="1">
          <mxGeometry x="517" y="352" width="68" height="56.00000000000001" as="geometry" />
        </mxCell>
        <mxCell id="CSpq6tTDl8FNC48XlwBT-23" value="HTML&lt;br&gt;CSS&lt;br&gt;JavaScript&lt;br&gt;Multimídia" style="text;html=1;align=center;verticalAlign=middle;resizable=0;points=[];autosize=1;strokeColor=none;fillColor=none;fontStyle=1" vertex="1" parent="1">
          <mxGeometry x="585" y="345" width="80" height="70" as="geometry" />
        </mxCell>
        <mxCell id="CSpq6tTDl8FNC48XlwBT-24" value="" style="image;aspect=fixed;perimeter=ellipsePerimeter;html=1;align=center;shadow=0;dashed=0;spacingTop=3;image=img/lib/active_directory/laptop_client.svg;" vertex="1" parent="1">
          <mxGeometry x="246" y="375" width="36" height="40" as="geometry" />
        </mxCell>
        <mxCell id="CSpq6tTDl8FNC48XlwBT-25" style="edgeStyle=orthogonalEdgeStyle;rounded=0;orthogonalLoop=1;jettySize=auto;html=1;exitX=0.99;exitY=0.171;exitDx=0;exitDy=0;exitPerimeter=0;entryX=0.026;entryY=0.308;entryDx=0;entryDy=0;entryPerimeter=0;dashed=1;" edge="1" parent="1" source="CSpq6tTDl8FNC48XlwBT-26" target="CSpq6tTDl8FNC48XlwBT-20">
          <mxGeometry relative="1" as="geometry">
            <Array as="points" />
          </mxGeometry>
        </mxCell>
        <mxCell id="CSpq6tTDl8FNC48XlwBT-26" value="" style="points=[[0.03,0.03,0],[0.5,0,0],[0.97,0.03,0],[1,0.4,0],[0.97,0.745,0],[0.5,1,0],[0.03,0.745,0],[0,0.4,0]];verticalLabelPosition=bottom;sketch=0;html=1;verticalAlign=top;aspect=fixed;align=center;pointerEvents=1;shape=mxgraph.cisco19.workstation;fillColor=#0073fc;strokeColor=none;" vertex="1" parent="1">
          <mxGeometry x="281" y="365" width="37.5" height="30" as="geometry" />
        </mxCell>
        <mxCell id="CSpq6tTDl8FNC48XlwBT-27" value="" style="html=1;verticalLabelPosition=bottom;align=center;labelBackgroundColor=#ffffff;verticalAlign=top;strokeWidth=2;strokeColor=#0080F0;shadow=0;dashed=0;shape=mxgraph.ios7.icons.smartphone;" vertex="1" parent="1">
          <mxGeometry x="258" y="350" width="12" height="20" as="geometry" />
        </mxCell>
        <mxCell id="CSpq6tTDl8FNC48XlwBT-28" value="Requisição HTTP" style="text;html=1;align=center;verticalAlign=middle;resizable=0;points=[];autosize=1;strokeColor=none;fillColor=none;" vertex="1" parent="1">
          <mxGeometry x="319.5" y="346" width="120" height="30" as="geometry" />
        </mxCell>
        <mxCell id="CSpq6tTDl8FNC48XlwBT-29" value="Resposta HTTP" style="text;html=1;align=center;verticalAlign=middle;resizable=0;points=[];autosize=1;strokeColor=none;fillColor=none;" vertex="1" parent="1">
          <mxGeometry x="324.5" y="379" width="110" height="30" as="geometry" />
        </mxCell>
        <mxCell id="CSpq6tTDl8FNC48XlwBT-30" value="Cliente" style="text;html=1;align=center;verticalAlign=middle;resizable=0;points=[];autosize=1;strokeColor=none;fillColor=none;fontStyle=1" vertex="1" parent="1">
          <mxGeometry x="255" y="310" width="60" height="30" as="geometry" />
        </mxCell>
        <mxCell id="CSpq6tTDl8FNC48XlwBT-31" value="Servidor" style="text;html=1;align=center;verticalAlign=middle;resizable=0;points=[];autosize=1;strokeColor=none;fillColor=none;fontStyle=1" vertex="1" parent="1">
          <mxGeometry x="516" y="310" width="70" height="30" as="geometry" />
        </mxCell>
        <mxCell id="CSpq6tTDl8FNC48XlwBT-49" value="" style="rounded=1;whiteSpace=wrap;html=1;fontStyle=0" vertex="1" parent="1">
          <mxGeometry x="431" y="462" width="239" height="119" as="geometry" />
        </mxCell>
        <mxCell id="CSpq6tTDl8FNC48XlwBT-50" value="" style="rounded=1;whiteSpace=wrap;html=1;fontStyle=0" vertex="1" parent="1">
          <mxGeometry x="240" y="462" width="90" height="80" as="geometry" />
        </mxCell>
        <mxCell id="CSpq6tTDl8FNC48XlwBT-51" style="edgeStyle=orthogonalEdgeStyle;rounded=0;orthogonalLoop=1;jettySize=auto;html=1;entryX=0.983;entryY=0.648;entryDx=0;entryDy=0;entryPerimeter=0;exitX=0.026;exitY=0.597;exitDx=0;exitDy=0;exitPerimeter=0;dashed=1;" edge="1" parent="1" source="CSpq6tTDl8FNC48XlwBT-52" target="CSpq6tTDl8FNC48XlwBT-58">
          <mxGeometry relative="1" as="geometry" />
        </mxCell>
        <mxCell id="CSpq6tTDl8FNC48XlwBT-64" style="edgeStyle=orthogonalEdgeStyle;rounded=0;orthogonalLoop=1;jettySize=auto;html=1;entryX=0;entryY=0.5;entryDx=0;entryDy=0;exitX=0.5;exitY=1;exitDx=0;exitDy=0;startArrow=classic;startFill=1;" edge="1" parent="1" source="CSpq6tTDl8FNC48XlwBT-52" target="CSpq6tTDl8FNC48XlwBT-32">
          <mxGeometry relative="1" as="geometry" />
        </mxCell>
        <mxCell id="CSpq6tTDl8FNC48XlwBT-52" value="" style="image;aspect=fixed;perimeter=ellipsePerimeter;html=1;align=center;shadow=0;dashed=0;spacingTop=3;image=img/lib/active_directory/web_server.svg;" vertex="1" parent="1">
          <mxGeometry x="442" y="477" width="40" height="50" as="geometry" />
        </mxCell>
        <mxCell id="CSpq6tTDl8FNC48XlwBT-53" style="edgeStyle=orthogonalEdgeStyle;rounded=0;orthogonalLoop=1;jettySize=auto;html=1;startArrow=classic;startFill=1;" edge="1" parent="1" source="CSpq6tTDl8FNC48XlwBT-54" target="CSpq6tTDl8FNC48XlwBT-52">
          <mxGeometry relative="1" as="geometry" />
        </mxCell>
        <mxCell id="CSpq6tTDl8FNC48XlwBT-54" value="" style="image;aspect=fixed;html=1;points=[];align=center;fontSize=12;image=img/lib/azure2/general/Folder_Website.svg;" vertex="1" parent="1">
          <mxGeometry x="517" y="474" width="68" height="56.00000000000001" as="geometry" />
        </mxCell>
        <mxCell id="CSpq6tTDl8FNC48XlwBT-55" value="HTML&lt;br&gt;CSS&lt;br&gt;JavaScript&lt;br&gt;Multimídia" style="text;html=1;align=center;verticalAlign=middle;resizable=0;points=[];autosize=1;strokeColor=none;fillColor=none;fontStyle=1" vertex="1" parent="1">
          <mxGeometry x="585" y="467" width="80" height="70" as="geometry" />
        </mxCell>
        <mxCell id="CSpq6tTDl8FNC48XlwBT-56" value="" style="image;aspect=fixed;perimeter=ellipsePerimeter;html=1;align=center;shadow=0;dashed=0;spacingTop=3;image=img/lib/active_directory/laptop_client.svg;" vertex="1" parent="1">
          <mxGeometry x="246" y="497" width="36" height="40" as="geometry" />
        </mxCell>
        <mxCell id="CSpq6tTDl8FNC48XlwBT-57" style="edgeStyle=orthogonalEdgeStyle;rounded=0;orthogonalLoop=1;jettySize=auto;html=1;exitX=0.99;exitY=0.171;exitDx=0;exitDy=0;exitPerimeter=0;entryX=0.026;entryY=0.308;entryDx=0;entryDy=0;entryPerimeter=0;dashed=1;" edge="1" parent="1" source="CSpq6tTDl8FNC48XlwBT-58" target="CSpq6tTDl8FNC48XlwBT-52">
          <mxGeometry relative="1" as="geometry">
            <Array as="points" />
          </mxGeometry>
        </mxCell>
        <mxCell id="CSpq6tTDl8FNC48XlwBT-58" value="" style="points=[[0.03,0.03,0],[0.5,0,0],[0.97,0.03,0],[1,0.4,0],[0.97,0.745,0],[0.5,1,0],[0.03,0.745,0],[0,0.4,0]];verticalLabelPosition=bottom;sketch=0;html=1;verticalAlign=top;aspect=fixed;align=center;pointerEvents=1;shape=mxgraph.cisco19.workstation;fillColor=#0073fc;strokeColor=none;" vertex="1" parent="1">
          <mxGeometry x="281" y="487" width="37.5" height="30" as="geometry" />
        </mxCell>
        <mxCell id="CSpq6tTDl8FNC48XlwBT-59" value="" style="html=1;verticalLabelPosition=bottom;align=center;labelBackgroundColor=#ffffff;verticalAlign=top;strokeWidth=2;strokeColor=#0080F0;shadow=0;dashed=0;shape=mxgraph.ios7.icons.smartphone;" vertex="1" parent="1">
          <mxGeometry x="258" y="472" width="12" height="20" as="geometry" />
        </mxCell>
        <mxCell id="CSpq6tTDl8FNC48XlwBT-60" value="Requisição HTTP" style="text;html=1;align=center;verticalAlign=middle;resizable=0;points=[];autosize=1;strokeColor=none;fillColor=none;" vertex="1" parent="1">
          <mxGeometry x="319.5" y="468" width="120" height="30" as="geometry" />
        </mxCell>
        <mxCell id="CSpq6tTDl8FNC48XlwBT-61" value="Resposta HTTP" style="text;html=1;align=center;verticalAlign=middle;resizable=0;points=[];autosize=1;strokeColor=none;fillColor=none;" vertex="1" parent="1">
          <mxGeometry x="324.5" y="501" width="110" height="30" as="geometry" />
        </mxCell>
        <mxCell id="CSpq6tTDl8FNC48XlwBT-62" value="Cliente" style="text;html=1;align=center;verticalAlign=middle;resizable=0;points=[];autosize=1;strokeColor=none;fillColor=none;fontStyle=1" vertex="1" parent="1">
          <mxGeometry x="255" y="432" width="60" height="30" as="geometry" />
        </mxCell>
        <mxCell id="CSpq6tTDl8FNC48XlwBT-63" value="Servidor" style="text;html=1;align=center;verticalAlign=middle;resizable=0;points=[];autosize=1;strokeColor=none;fillColor=none;fontStyle=1" vertex="1" parent="1">
          <mxGeometry x="516" y="432" width="70" height="30" as="geometry" />
        </mxCell>
        <mxCell id="CSpq6tTDl8FNC48XlwBT-32" value="" style="image;aspect=fixed;perimeter=ellipsePerimeter;html=1;align=center;shadow=0;dashed=0;spacingTop=3;image=img/lib/active_directory/databases.svg;" vertex="1" parent="1">
          <mxGeometry x="528.5" y="535" width="44" height="43.12" as="geometry" />
        </mxCell>
        <mxCell id="CSpq6tTDl8FNC48XlwBT-65" value="Banco de&lt;br&gt;Dados" style="text;html=1;align=left;verticalAlign=middle;resizable=0;points=[];autosize=1;strokeColor=none;fillColor=none;fontStyle=1" vertex="1" parent="1">
          <mxGeometry x="579" y="536.06" width="72" height="41" as="geometry" />
        </mxCell>
        <mxCell id="CSpq6tTDl8FNC48XlwBT-66" value="" style="rounded=1;whiteSpace=wrap;html=1;fontStyle=0" vertex="1" parent="1">
          <mxGeometry x="431" y="650" width="239" height="80" as="geometry" />
        </mxCell>
        <mxCell id="CSpq6tTDl8FNC48XlwBT-67" value="" style="rounded=1;whiteSpace=wrap;html=1;fontStyle=0" vertex="1" parent="1">
          <mxGeometry x="240" y="650" width="90" height="80" as="geometry" />
        </mxCell>
        <mxCell id="CSpq6tTDl8FNC48XlwBT-68" style="edgeStyle=orthogonalEdgeStyle;rounded=0;orthogonalLoop=1;jettySize=auto;html=1;entryX=0.983;entryY=0.648;entryDx=0;entryDy=0;entryPerimeter=0;exitX=0.026;exitY=0.597;exitDx=0;exitDy=0;exitPerimeter=0;dashed=1;" edge="1" parent="1" source="CSpq6tTDl8FNC48XlwBT-69" target="CSpq6tTDl8FNC48XlwBT-75">
          <mxGeometry relative="1" as="geometry" />
        </mxCell>
        <mxCell id="CSpq6tTDl8FNC48XlwBT-120" style="edgeStyle=orthogonalEdgeStyle;rounded=0;orthogonalLoop=1;jettySize=auto;html=1;entryX=0.537;entryY=0.007;entryDx=0;entryDy=0;entryPerimeter=0;startArrow=classic;startFill=1;dashed=1;endArrow=none;endFill=0;" edge="1" parent="1" source="CSpq6tTDl8FNC48XlwBT-69" target="CSpq6tTDl8FNC48XlwBT-114">
          <mxGeometry relative="1" as="geometry">
            <mxPoint x="462" y="770.4934488932292" as="targetPoint" />
          </mxGeometry>
        </mxCell>
        <mxCell id="CSpq6tTDl8FNC48XlwBT-121" style="edgeStyle=orthogonalEdgeStyle;rounded=0;orthogonalLoop=1;jettySize=auto;html=1;entryX=0.471;entryY=0;entryDx=0;entryDy=0;entryPerimeter=0;exitX=0.129;exitY=1.013;exitDx=0;exitDy=0;exitPerimeter=0;dashed=1;startArrow=none;startFill=0;" edge="1" parent="1" source="CSpq6tTDl8FNC48XlwBT-69" target="CSpq6tTDl8FNC48XlwBT-114">
          <mxGeometry relative="1" as="geometry">
            <mxPoint x="447" y="770" as="targetPoint" />
          </mxGeometry>
        </mxCell>
        <mxCell id="CSpq6tTDl8FNC48XlwBT-69" value="" style="image;aspect=fixed;perimeter=ellipsePerimeter;html=1;align=center;shadow=0;dashed=0;spacingTop=3;image=img/lib/active_directory/web_server.svg;" vertex="1" parent="1">
          <mxGeometry x="442" y="665" width="40" height="50" as="geometry" />
        </mxCell>
        <mxCell id="CSpq6tTDl8FNC48XlwBT-70" style="edgeStyle=orthogonalEdgeStyle;rounded=0;orthogonalLoop=1;jettySize=auto;html=1;startArrow=classic;startFill=1;" edge="1" parent="1" source="CSpq6tTDl8FNC48XlwBT-71" target="CSpq6tTDl8FNC48XlwBT-69">
          <mxGeometry relative="1" as="geometry" />
        </mxCell>
        <mxCell id="CSpq6tTDl8FNC48XlwBT-71" value="" style="image;aspect=fixed;html=1;points=[];align=center;fontSize=12;image=img/lib/azure2/general/Folder_Website.svg;" vertex="1" parent="1">
          <mxGeometry x="517" y="662" width="68" height="56.00000000000001" as="geometry" />
        </mxCell>
        <mxCell id="CSpq6tTDl8FNC48XlwBT-72" value="HTML&lt;br&gt;CSS&lt;br&gt;JavaScript&lt;br&gt;Multimídia" style="text;html=1;align=center;verticalAlign=middle;resizable=0;points=[];autosize=1;strokeColor=none;fillColor=none;fontStyle=1" vertex="1" parent="1">
          <mxGeometry x="585" y="655" width="80" height="70" as="geometry" />
        </mxCell>
        <mxCell id="CSpq6tTDl8FNC48XlwBT-73" value="" style="image;aspect=fixed;perimeter=ellipsePerimeter;html=1;align=center;shadow=0;dashed=0;spacingTop=3;image=img/lib/active_directory/laptop_client.svg;" vertex="1" parent="1">
          <mxGeometry x="246" y="685" width="36" height="40" as="geometry" />
        </mxCell>
        <mxCell id="CSpq6tTDl8FNC48XlwBT-74" style="edgeStyle=orthogonalEdgeStyle;rounded=0;orthogonalLoop=1;jettySize=auto;html=1;exitX=0.99;exitY=0.171;exitDx=0;exitDy=0;exitPerimeter=0;entryX=0.026;entryY=0.308;entryDx=0;entryDy=0;entryPerimeter=0;dashed=1;" edge="1" parent="1" source="CSpq6tTDl8FNC48XlwBT-75" target="CSpq6tTDl8FNC48XlwBT-69">
          <mxGeometry relative="1" as="geometry">
            <Array as="points" />
          </mxGeometry>
        </mxCell>
        <mxCell id="CSpq6tTDl8FNC48XlwBT-75" value="" style="points=[[0.03,0.03,0],[0.5,0,0],[0.97,0.03,0],[1,0.4,0],[0.97,0.745,0],[0.5,1,0],[0.03,0.745,0],[0,0.4,0]];verticalLabelPosition=bottom;sketch=0;html=1;verticalAlign=top;aspect=fixed;align=center;pointerEvents=1;shape=mxgraph.cisco19.workstation;fillColor=#0073fc;strokeColor=none;" vertex="1" parent="1">
          <mxGeometry x="281" y="675" width="37.5" height="30" as="geometry" />
        </mxCell>
        <mxCell id="CSpq6tTDl8FNC48XlwBT-76" value="" style="html=1;verticalLabelPosition=bottom;align=center;labelBackgroundColor=#ffffff;verticalAlign=top;strokeWidth=2;strokeColor=#0080F0;shadow=0;dashed=0;shape=mxgraph.ios7.icons.smartphone;" vertex="1" parent="1">
          <mxGeometry x="258" y="660" width="12" height="20" as="geometry" />
        </mxCell>
        <mxCell id="CSpq6tTDl8FNC48XlwBT-77" value="Requisição HTTP" style="text;html=1;align=center;verticalAlign=middle;resizable=0;points=[];autosize=1;strokeColor=none;fillColor=none;" vertex="1" parent="1">
          <mxGeometry x="319.5" y="656" width="120" height="30" as="geometry" />
        </mxCell>
        <mxCell id="CSpq6tTDl8FNC48XlwBT-78" value="Resposta HTTP" style="text;html=1;align=center;verticalAlign=middle;resizable=0;points=[];autosize=1;strokeColor=none;fillColor=none;" vertex="1" parent="1">
          <mxGeometry x="324.5" y="689" width="110" height="30" as="geometry" />
        </mxCell>
        <mxCell id="CSpq6tTDl8FNC48XlwBT-79" value="Cliente" style="text;html=1;align=center;verticalAlign=middle;resizable=0;points=[];autosize=1;strokeColor=none;fillColor=none;fontStyle=1" vertex="1" parent="1">
          <mxGeometry x="255" y="620" width="60" height="30" as="geometry" />
        </mxCell>
        <mxCell id="CSpq6tTDl8FNC48XlwBT-80" value="Servidor &lt;i&gt;Front-End&lt;/i&gt;" style="text;html=1;align=center;verticalAlign=middle;resizable=0;points=[];autosize=1;strokeColor=none;fillColor=none;fontStyle=1" vertex="1" parent="1">
          <mxGeometry x="488" y="622" width="127" height="26" as="geometry" />
        </mxCell>
        <mxCell id="CSpq6tTDl8FNC48XlwBT-81" value="" style="rounded=1;whiteSpace=wrap;html=1;fontStyle=0" vertex="1" parent="1">
          <mxGeometry x="416" y="1110" width="239" height="114" as="geometry" />
        </mxCell>
        <mxCell id="CSpq6tTDl8FNC48XlwBT-86" value="Servidor &lt;i&gt;Back-End&lt;/i&gt;" style="text;html=1;align=center;verticalAlign=middle;resizable=0;points=[];autosize=1;strokeColor=none;fillColor=none;fontStyle=1" vertex="1" parent="1">
          <mxGeometry x="391" y="924" width="125" height="26" as="geometry" />
        </mxCell>
        <mxCell id="CSpq6tTDl8FNC48XlwBT-119" style="edgeStyle=orthogonalEdgeStyle;rounded=0;orthogonalLoop=1;jettySize=auto;html=1;entryX=0.5;entryY=1;entryDx=0;entryDy=0;startArrow=classic;startFill=1;exitX=0.5;exitY=0;exitDx=0;exitDy=0;" edge="1" parent="1" source="CSpq6tTDl8FNC48XlwBT-87" target="CSpq6tTDl8FNC48XlwBT-112">
          <mxGeometry relative="1" as="geometry" />
        </mxCell>
        <mxCell id="CSpq6tTDl8FNC48XlwBT-87" value="" style="image;aspect=fixed;perimeter=ellipsePerimeter;html=1;align=center;shadow=0;dashed=0;spacingTop=3;image=img/lib/active_directory/databases.svg;" vertex="1" parent="1">
          <mxGeometry x="435.12" y="884" width="36.75" height="36.02" as="geometry" />
        </mxCell>
        <mxCell id="CSpq6tTDl8FNC48XlwBT-88" value="Banco de Dados" style="text;html=1;align=left;verticalAlign=middle;resizable=0;points=[];autosize=1;strokeColor=none;fillColor=none;fontStyle=1" vertex="1" parent="1">
          <mxGeometry x="482" y="884" width="112" height="26" as="geometry" />
        </mxCell>
        <mxCell id="CSpq6tTDl8FNC48XlwBT-91" value="Requisição HTTP" style="text;html=1;align=center;verticalAlign=middle;resizable=0;points=[];autosize=1;strokeColor=none;fillColor=none;" vertex="1" parent="1">
          <mxGeometry x="332" y="745.5" width="120" height="30" as="geometry" />
        </mxCell>
        <mxCell id="CSpq6tTDl8FNC48XlwBT-92" value="Resposta HTTP" style="text;html=1;align=center;verticalAlign=middle;resizable=0;points=[];autosize=1;strokeColor=none;fillColor=none;" vertex="1" parent="1">
          <mxGeometry x="457" y="725" width="110" height="30" as="geometry" />
        </mxCell>
        <mxCell id="CSpq6tTDl8FNC48XlwBT-106" value="" style="group" vertex="1" connectable="0" parent="1">
          <mxGeometry x="421" y="775.5" width="137" height="73" as="geometry" />
        </mxCell>
        <mxCell id="CSpq6tTDl8FNC48XlwBT-105" value="GraphQL" style="text;html=1;align=center;verticalAlign=middle;resizable=0;points=[];autosize=1;strokeColor=none;fillColor=none;fontStyle=1" vertex="1" parent="CSpq6tTDl8FNC48XlwBT-106">
          <mxGeometry y="44" width="70" height="26" as="geometry" />
        </mxCell>
        <mxCell id="CSpq6tTDl8FNC48XlwBT-104" value="" style="shape=image;verticalLabelPosition=bottom;labelBackgroundColor=default;verticalAlign=top;aspect=fixed;imageAspect=0;image=https://upload.wikimedia.org/wikipedia/commons/thumb/1/17/GraphQL_Logo.svg/1024px-GraphQL_Logo.svg.png;" vertex="1" parent="CSpq6tTDl8FNC48XlwBT-106">
          <mxGeometry x="10" width="50" height="50" as="geometry" />
        </mxCell>
        <mxCell id="CSpq6tTDl8FNC48XlwBT-109" value="" style="shape=image;verticalLabelPosition=bottom;labelBackgroundColor=default;verticalAlign=top;aspect=fixed;imageAspect=0;image=https://grpc.io/img/logos/grpc-icon-color.png;" vertex="1" parent="CSpq6tTDl8FNC48XlwBT-106">
          <mxGeometry x="73" width="57" height="57" as="geometry" />
        </mxCell>
        <mxCell id="CSpq6tTDl8FNC48XlwBT-112" value="&lt;b style=&quot;border-color: var(--border-color); color: rgb(0, 0, 0); font-family: Helvetica; font-size: 12px; font-variant-ligatures: normal; font-variant-caps: normal; letter-spacing: normal; orphans: 2; text-align: center; text-indent: 0px; text-transform: none; widows: 2; word-spacing: 0px; -webkit-text-stroke-width: 0px; background-color: rgb(251, 251, 251); text-decoration-thickness: initial; text-decoration-style: initial; text-decoration-color: initial;&quot;&gt;&lt;i&gt;Application&amp;nbsp;Programming&amp;nbsp;Interface (API)&lt;br&gt;&lt;/i&gt;&lt;/b&gt;" style="text;whiteSpace=wrap;html=1;" vertex="1" parent="1">
          <mxGeometry x="336.75" y="836" width="233.5" height="25" as="geometry" />
        </mxCell>
        <mxCell id="CSpq6tTDl8FNC48XlwBT-111" value="&lt;b style=&quot;font-size: 20px;&quot;&gt;{&lt;font color=&quot;#0073fc&quot; style=&quot;font-size: 20px;&quot;&gt;REST&lt;/font&gt;}&lt;/b&gt;" style="text;html=1;align=center;verticalAlign=middle;resizable=0;points=[];autosize=1;strokeColor=none;fillColor=none;fontSize=20;" vertex="1" parent="1">
          <mxGeometry x="342.5" y="786" width="87" height="36" as="geometry" />
        </mxCell>
      </root>
    </mxGraphModel>
  </diagram>
</mxfile>
